# xmcd CD database file
# Copyright (C) 1997 Ti Kan
#
# Track frame offsets:
#  150
#  162672
#  208650
#
# Disc length: 4257 seconds
#
# Revision: 1
# Processed by: cddbd v1.4b41PL1 Copyright (c) Steve Scherf et al.
# Submitted via: CDWizzard Release:4.30
#
DISCID=26109f03
DTITLE=Richard Strauss - Zarathustra
DYEAR=1900
DGENRE=
TTITLE0=Thus spake Zarathustra, op. 30
TTITLE1=Dance of the Seven Veils
TTITLE2=Four Symphonic Interludes from Intermizzo
EXTD=
EXTT0=
EXTT1=
EXTT2=
PLAYORDER=
